# xmcd CD database file
#
# Track frame offsets:
#	150
#	22064
#	48212
#	72738
#	88694
#	105984
#	130426
#	148689
#	171288
#	189819
#	212456
#	238316
#	264665
#	283222
#	306300
#
# Disc length: 4314 seconds
#
# Revision: 0
# Processed by: cddbd v1.5.2PL0 Copyright (c) Steve Scherf et al.
# Submitted via: CDex 1.70beta2
#
DISCID=e510d80f
DTITLE=Scott Simmerman - notes that rhyme
DYEAR=2004
DGENRE=Jazz
TTITLE0=Isn't This A Lovely Day
TTITLE1=Once I Loved
TTITLE2=Moonlight in Vermont
TTITLE3=A Foggy Day
TTITLE4=On The Sunny Side Of The Street
TTITLE5=If I Should Lose You
TTITLE6=The Wondrous Sounds Of Christmas
TTITLE7=Emily
TTITLE8=It Might As Well Be Spring
TTITLE9=Like Someone In Love
TTITLE10=Tenderly
TTITLE11=When Lights Are Low
TTITLE12=I Thought About You
TTITLE13=Time After Time
TTITLE14=The Nearness Of You
EXTD=YEAR: 2004
EXTT0=
EXTT1=
EXTT2=
EXTT3=
EXTT4=
EXTT5=
EXTT6=
EXTT7=
EXTT8=
EXTT9=
EXTT10=
EXTT11=
EXTT12=
EXTT13=
EXTT14=
PLAYORDER=
